<?xml version="1.0" standalone="no"?>
<!DOCTYPE svg PUBLIC "-//W3C//DTD SVG 20010904//EN"
 "http://www.w3.org/TR/2001/REC-SVG-20010904/DTD/svg10.dtd">
<svg version="1.0" xmlns="http://www.w3.org/2000/svg"
 width="48.000000pt" height="48.000000pt" viewBox="0 0 48.000000 48.000000"
 preserveAspectRatio="xMidYMid meet">

<g transform="translate(0.000000,48.000000) scale(0.100000,-0.100000)"
fill="#fff" stroke="none">
<path d="M72 408 c-17 -17 -17 -319 0 -336 17 -17 319 -17 336 0 17 17 17 319
0 336 -17 17 -319 17 -336 0z m183 -118 l50 -50 -53 -52 c-41 -41 -54 -50 -64
-40 -9 9 -4 21 27 52 l39 40 -38 39 c-33 34 -41 61 -18 61 4 0 30 -23 57 -50z"/>
</g>
</svg>
